Coordinates
version=1
nRows=60
nColumns=12
inDegrees=yes

Units are S.I. units (second, meters, Newtons, ...)
Angles are in degrees

endheader
time	SC_y	SC_z	SC_x	AC_y	AC_z	AC_x	GH_y	GH_z	GH_yy	EL_x	PS_y
       0.0              -26.52          -1.17          27.16          57.68           8.28           12.8          57.47          75.71         -21.99          22.38          107.0
   0.02941              -26.52         -1.167          27.16          57.68          8.277          12.79          57.46          75.71          -22.0          22.38          107.0
   0.05882              -26.52         -1.164          27.15          57.68          8.274          12.79          57.45          75.71          -22.0          22.38          107.0
   0.08823              -26.53          -1.16          27.15          57.68          8.271          12.79          57.44          75.71          -22.0          22.39          107.0
    0.1176              -26.53         -1.156          27.15          57.68          8.268          12.79          57.42          75.72          -22.0          22.39          107.0
     0.147              -26.53         -1.151          27.15          57.68          8.265          12.79          57.41          75.72          -22.0          22.39          107.0
    0.1765              -26.54         -1.147          27.15          57.68          8.261          12.78           57.4          75.72          -22.0          22.39          107.1
    0.2059              -26.54         -1.142          27.15          57.68          8.257          12.78          57.38          75.72          -22.0          22.39          107.1
    0.2353              -26.55         -1.137          27.15          57.68          8.253          12.78          57.36          75.72          -22.0          22.39          107.1
    0.2647              -26.55         -1.131          27.14          57.68          8.248          12.77          57.35          75.72         -22.01          22.39          107.1
    0.2941              -26.56         -1.125          27.14          57.67          8.243          12.77          57.33          75.73         -22.01          22.39          107.1
    0.3235              -26.56         -1.118          27.14          57.67          8.238          12.77          57.31          75.73         -22.01          22.39          107.1
    0.3529              -26.57         -1.111          27.14          57.67          8.232          12.76          57.28          75.73         -22.01          22.39          107.1
    0.3823              -26.58         -1.104          27.14          57.67          8.226          12.76          57.26          75.73         -22.01           22.4          107.1
    0.4117              -26.58         -1.095          27.13          57.67           8.22          12.75          57.23          75.74         -22.02           22.4          107.2
    0.4411              -26.59         -1.087          27.13          57.67          8.212          12.75          57.21          75.74         -22.02           22.4          107.2
    0.4705               -26.6         -1.077          27.13          57.67          8.205          12.74          57.18          75.74         -22.02           22.4          107.2
       0.5              -26.61         -1.066          27.12          57.66          8.196          12.74          57.14          75.75         -22.03           22.4          107.2
    0.5294              -26.62         -1.055          27.12          57.66          8.187          12.73          57.11          75.75         -22.03          22.41          107.2
    0.5588              -26.63         -1.042          27.12          57.66          8.177          12.72          57.07          75.76         -22.03          22.41          107.3
    0.5882              -26.64         -1.028          27.11          57.66          8.166          12.72          57.02          75.76         -22.04          22.41          107.3
    0.6176              -26.66         -1.013          27.11          57.65          8.153          12.71          56.98          75.77         -22.04          22.41          107.3
     0.647              -26.67        -0.9961           27.1          57.65           8.14           12.7          56.92          75.77         -22.05          22.42          107.4
    0.6764              -26.69        -0.9774           27.1          57.65          8.125          12.69          56.86          75.78         -22.05          22.42          107.4
    0.7058              -26.71        -0.9566          27.09          57.65          8.108          12.67           56.8          75.79         -22.06          22.43          107.4
    0.7352              -26.73        -0.9334          27.08          57.64          8.089          12.66          56.73          75.79         -22.07          22.43          107.5
    0.7646              -26.75        -0.9074          27.08          57.64          8.068          12.65          56.64           75.8         -22.07          22.44          107.5
     0.794              -26.78        -0.8782          27.07          57.63          8.045          12.63          56.55          75.81         -22.08          22.44          107.6
    0.8235              -26.81        -0.8452          27.06          57.63          8.018          12.61          56.45          75.83         -22.09          22.45          107.7
    0.8529              -26.84        -0.8077          27.05          57.62          7.988          12.59          56.33          75.84          -22.1          22.46          107.7
    0.8823              -26.88        -0.7649          27.03          57.61          7.954          12.57           56.2          75.86         -22.12          22.46          107.8
    0.9117              -26.92        -0.7158          27.02           57.6          7.914          12.54          56.04          75.87         -22.13          22.47          107.9
    0.9411              -26.97        -0.6592           27.0          57.59          7.869           12.5          55.87          75.89         -22.15          22.48          108.0
    0.9705              -27.03        -0.5933          26.98          57.58          7.816          12.47          55.66          75.92         -22.17           22.5          108.2
    0.9999               -27.1        -0.5162          26.96          57.57          7.754          12.42          55.42          75.94         -22.19          22.51          108.3
     1.029              -27.18        -0.4254          26.93          57.55          7.681          12.37          55.13          75.98         -22.22          22.53          108.5
     1.059              -27.27        -0.3174           26.9          57.53          7.594          12.31           54.8          76.02         -22.25          22.55          108.7
     1.088              -27.39         -0.188          26.86          57.51           7.49          12.24          54.39          76.06         -22.29          22.58          109.0
     1.118              -27.53       -0.03146          26.81          57.49          7.364          12.15           53.9          76.12         -22.34          22.61          109.3
     1.147               -27.7         0.1598          26.75          57.45           7.21          12.04           53.3          76.19         -22.39          22.65          109.7
     1.176               -27.9         0.3958          26.68          57.41          7.021           11.9          52.56          76.27         -22.47           22.7          110.2
     1.206              -28.17         0.6902          26.59          57.36          6.784          11.74          51.64          76.38         -22.55          22.75          110.8
     1.235              -28.49          1.061          26.47           57.3          6.486          11.53          50.47          76.51         -22.66          22.83          111.5
     1.265              -28.91          1.532          26.33          57.21          6.107          11.26           49.0          76.68         -22.81          22.92          112.5
     1.294              -29.45          2.136          26.15          57.11          5.622          10.91           47.1           76.9         -22.99          23.04          113.7
     1.323              -30.13           2.91          25.91          56.98          4.999          10.47          44.68          77.17         -23.22           23.2          115.3
     1.353              -31.01          3.899          25.61           56.8          4.204           9.91          41.58          77.53         -23.52          23.39          117.3
     1.382              -32.11          5.142          25.23          56.59          3.205          9.202          37.68          77.97         -23.89          23.64          119.8
     1.412              -33.45          6.658          24.76          56.33          1.986           8.34          32.93          78.52         -24.35          23.94          122.8
     1.441              -35.01          8.414          24.23          56.02         0.5739           7.34          27.42          79.15         -24.87          24.29          126.4
      1.47              -36.69          10.32          23.64          55.69        -0.9552          6.257          21.46          79.83         -25.45          24.67          130.2
       1.5              -38.37          12.22          23.06          55.36         -2.484          5.174          15.49          80.51         -26.02          25.05          134.1
     1.529              -39.93          13.97          22.53          55.06         -3.897          4.174          9.986          81.14         -26.54           25.4          137.6
     1.559              -41.27          15.49          22.06           54.8         -5.115          3.311          5.235          81.68          -27.0          25.71          140.7
     1.588              -42.37          16.73          21.68          54.58         -6.115          2.603          1.336          82.13         -27.37          25.95          143.2
     1.618              -43.25          17.72          21.38          54.41          -6.91           2.04         -1.764          82.48         -27.67          26.15          145.2
     1.647              -43.94           18.5          21.14          54.28         -7.532            1.6         -4.192          82.76          -27.9          26.31          146.8
     1.676              -44.47           19.1          20.96          54.17         -8.017          1.256         -6.083          82.98         -28.08          26.43          148.0
     1.706              -44.89          19.57          20.81          54.09         -8.396         0.9878         -7.561          83.15         -28.23          26.52          149.0
     1.735              -45.22          19.94           20.7          54.03         -8.694         0.7767         -8.724          83.28         -28.34          26.59          149.7
